<svg width="43" height="14" viewBox="0 0 43 14" fill="none" xmlns="http://www.w3.org/2000/svg">
<path d="M5.706 0.756H8.01L9.468 4.986L10.944 0.756H13.23L11.034 6.57L12.654 10.638L16.272 0.719999H18.972L13.86 13.5H11.718L9.468 8.136L7.236 13.5H5.094L0 0.719999H2.664L6.3 10.638L7.884 6.57L5.706 0.756ZM29.6952 11.322V13.5H20.8212V0.719999H29.5332V2.898H23.3052V5.976H28.6872V7.992H23.3052V11.322H29.6952ZM42.4678 10.206C42.4678 10.926 42.2818 11.532 41.9098 12.024C41.5378 12.504 41.0338 12.87 40.3978 13.122C39.7738 13.374 39.0898 13.5 38.3458 13.5H32.1718V0.719999H39.0118C39.6118 0.719999 40.1278 0.881999 40.5598 1.206C41.0038 1.518 41.3398 1.926 41.5678 2.43C41.8078 2.922 41.9278 3.438 41.9278 3.978C41.9278 4.59 41.7718 5.172 41.4598 5.724C41.1478 6.276 40.6918 6.684 40.0918 6.948C40.8238 7.164 41.3998 7.554 41.8198 8.118C42.2518 8.682 42.4678 9.378 42.4678 10.206ZM39.9658 9.738C39.9658 9.414 39.8998 9.126 39.7678 8.874C39.6358 8.61 39.4558 8.406 39.2278 8.262C39.0118 8.106 38.7598 8.028 38.4718 8.028H34.6558V11.394H38.3458C38.6458 11.394 38.9158 11.322 39.1558 11.178C39.4078 11.022 39.6058 10.818 39.7498 10.566C39.8938 10.314 39.9658 10.038 39.9658 9.738ZM34.6558 2.844V6.066H37.9678C38.2438 6.066 38.4958 6 38.7238 5.868C38.9518 5.736 39.1318 5.55 39.2638 5.31C39.4078 5.07 39.4798 4.782 39.4798 4.446C39.4798 4.122 39.4138 3.84 39.2818 3.6C39.1618 3.36 38.9938 3.174 38.7778 3.042C38.5738 2.91 38.3398 2.844 38.0758 2.844H34.6558Z" fill="#4D5AE5"/>
</svg>
